<?xml version="1.0" standalone="no"?>
<!DOCTYPE svg PUBLIC "-//W3C//DTD SVG 20010904//EN"
 "http://www.w3.org/TR/2001/REC-SVG-20010904/DTD/svg10.dtd">
<svg version="1.0" xmlns="http://www.w3.org/2000/svg"
 width="1024.000000pt" height="1024.000000pt" viewBox="0 0 1024.000000 1024.000000"
 preserveAspectRatio="xMidYMid meet">
<metadata>
Created by potrace 1.11, written by Peter Selinger 2001-2013
</metadata>
<g transform="translate(0.000000,1024.000000) scale(0.100000,-0.100000)"
fill="#000000" stroke="none">
<path d="M2290 9583 c-59 -20 -121 -64 -158 -111 -30 -37 -71 -127 -68 -147 0
-5 -27 -23 -62 -40 -78 -38 -134 -91 -169 -164 l-28 -56 0 -275 0 -275 26 -55
c32 -69 92 -131 161 -167 l53 -28 3100 0 3100 0 57 27 c72 33 133 95 167 167
l26 56 0 275 0 275 -28 57 c-40 82 -124 157 -201 178 -12 3 -26 28 -41 67 -38
106 -109 177 -213 215 -44 16 -233 17 -2862 17 -2533 0 -2820 -2 -2860 -16z"/>
<path d="M2115 8041 c7 -51 20 -171 30 -286 4 -38 8 -81 10 -95 2 -14 7 -50
10 -80 12 -125 16 -157 20 -190 2 -19 7 -57 10 -85 2 -27 7 -70 9 -95 3 -25 8
-70 11 -100 3 -30 8 -71 10 -90 2 -19 7 -64 11 -100 3 -36 7 -72 9 -80 2 -8 6
-51 10 -95 4 -44 9 -91 10 -105 12 -109 16 -150 20 -185 6 -43 13 -111 20
-190 3 -27 7 -63 9 -80 3 -16 7 -57 11 -90 3 -33 8 -78 10 -100 2 -22 7 -67
10 -100 4 -33 8 -76 11 -95 2 -19 7 -60 9 -90 3 -30 8 -71 10 -90 7 -56 17
-150 30 -285 3 -33 8 -71 10 -85 2 -14 7 -54 10 -90 6 -63 10 -104 20 -185 3
-22 7 -62 10 -90 7 -71 15 -153 20 -200 3 -22 7 -60 9 -85 7 -61 26 -235 32
-285 2 -22 7 -65 9 -95 3 -30 7 -68 10 -85 2 -16 7 -61 10 -100 4 -38 8 -81
10 -95 2 -14 7 -52 10 -85 3 -33 8 -76 10 -95 2 -19 7 -64 10 -100 3 -36 8
-76 10 -90 2 -14 7 -54 10 -90 3 -36 8 -81 10 -100 13 -96 15 -120 20 -180 3
-36 7 -76 10 -90 2 -14 6 -54 10 -90 3 -36 7 -81 10 -100 2 -19 7 -60 10 -90
3 -30 8 -71 10 -90 2 -19 7 -69 10 -110 4 -41 8 -82 10 -90 2 -8 6 -44 10 -80
3 -36 7 -74 9 -85 2 -11 7 -56 11 -100 4 -44 8 -87 10 -95 2 -8 6 -51 9 -95 4
-44 9 -87 11 -95 2 -8 7 -46 10 -85 6 -68 10 -107 20 -190 9 -83 18 -161 20
-185 1 -14 6 -61 10 -105 4 -44 9 -88 11 -97 1 -9 5 -48 9 -85 3 -37 8 -79 10
-93 3 -14 7 -56 10 -95 4 -38 8 -81 10 -95 2 -14 7 -52 10 -85 4 -33 8 -73 10
-90 12 -113 18 -173 20 -195 l1 -25 2292 -3 c1261 -1 2292 1 2293 5 3 22 7 65
13 123 3 36 8 76 10 90 3 14 7 57 11 95 3 39 8 84 10 100 2 17 7 55 10 85 3
30 7 73 10 95 2 22 9 85 15 140 6 55 13 119 15 142 3 23 7 68 10 100 3 32 7
72 10 88 2 17 7 62 10 100 4 39 8 81 10 95 2 14 6 48 9 75 15 136 37 346 42
390 2 28 7 66 9 85 2 19 7 58 10 85 2 28 8 75 11 105 7 62 9 78 18 175 4 39 9
81 11 95 2 14 6 54 9 90 4 36 8 81 10 100 3 19 8 64 11 100 4 36 8 72 10 80 2
8 6 51 9 95 4 44 9 87 11 95 2 8 6 47 10 85 7 78 13 140 20 200 8 63 13 115
20 185 3 36 8 76 10 90 2 14 7 54 10 90 3 36 8 81 10 100 3 19 7 64 10 100 3
36 8 79 10 95 3 17 7 50 9 75 13 110 17 148 21 190 2 25 7 72 10 105 4 33 8
71 10 85 2 14 6 54 10 90 6 70 12 124 21 180 2 19 6 55 8 80 9 109 19 206 21
220 3 14 8 64 21 180 2 25 6 61 9 80 2 19 7 62 10 95 3 33 10 96 15 140 5 44
12 112 15 150 3 39 8 81 10 95 3 14 7 52 10 85 3 33 8 76 10 95 2 19 7 62 10
95 3 33 8 71 10 85 2 14 7 61 11 105 3 44 8 88 10 98 2 10 6 46 9 80 3 34 8
78 10 97 2 19 7 64 11 100 3 36 8 72 9 80 2 8 6 53 10 100 4 47 8 92 10 100 3
15 16 124 20 170 2 14 6 61 10 105 4 44 9 88 10 97 2 9 6 48 10 85 3 37 8 84
11 104 5 38 8 71 19 179 3 36 8 77 10 91 l5 25 -3100 0 -3100 0 5 -35z"/>
</g>
</svg>
