<?xml version="1.0" standalone="no"?>
<!DOCTYPE svg PUBLIC "-//W3C//DTD SVG 1.1//EN" "http://www.w3.org/Graphics/SVG/1.1/DTD/svg11.dtd">
<svg xmlns="http://www.w3.org/2000/svg">
<metadata>Copyright (C) 2015 by original authors @ fontello.com</metadata>
<defs>
<font id="xmas" horiz-adv-x="1000" >
<font-face font-family="xmas" font-weight="400" font-stretch="normal" units-per-em="1000" ascent="850" descent="-150" />
<missing-glyph horiz-adv-x="1000" />
<glyph glyph-name="bow" unicode="&#xe800;" d="m849 117c-1 0-69 40-164 126-28 25-51 60-62 77 1 1 2 3 3 4 26-17 69-45 106-64 46-25 96-40 130-40 14 0 26 3 35 7 28 15 23 60 11 138-4 26-9 52-9 69 0 13 5 32 10 51 12 49 29 116-23 149-9 6-20 9-33 9-67 0-189-84-235-117-12 12-28 20-46 20h-125c-19 0-35-8-46-20-46 33-168 117-236 117-13 0-24-3-33-9-52-33-35-100-23-149 5-19 10-38 10-51 0-17-4-43-8-69-13-78-18-123 10-138 10-4 21-7 35-7 0 0 0 0 0 0 34 0 84 15 130 40 37 19 81 47 107 65 1-2 2-3 3-5-11-17-34-51-63-77-95-86-163-126-163-126l-87-50 238 26 48-121 19 50c39 99 96 246 106 272h30c11-26 67-173 106-272l19-50 48 121 238-26-86 50z m-466 336h-80c-15 0-27-12-27-27 0-15 12-27 27-27h80l0-31c-21-14-75-49-116-71-39-21-84-35-111-35h0c-6 0-10 1-12 1-4 15 3 65 8 95 5 29 9 56 9 76 0 18-5 39-11 61-13 51-20 88 5 104 2 1 5 2 10 2 52 0 168-78 218-115l0-33z m470 148c5 0 8-1 11-2 24-16 17-53 4-103-5-23-11-44-11-62 0-20 5-47 9-76 5-30 13-80 8-95-2 0-6-1-12-1-27 0-71 14-110 35-42 22-95 57-116 71v31h79c15 0 27 12 27 27 0 15-12 27-27 27h-79v30c0 1-1 2-1 4 50 37 166 114 218 114z m-450-425l-34-89-21 51-87-9c27 20 61 47 100 82 32 29 57 66 69 85 5-1 11-2 17-2h3c-10-22-24-59-47-118z m44 160c-12 0-21 9-21 21v126c0 12 9 21 21 21h125c7 0 13-3 17-9 2-2 3-4 4-7l1-131c0-12-10-21-22-21h-125z m223-198l-20-51-35 89c-23 59-37 96-46 118h3c6 0 11 1 16 2 12-19 38-56 69-85 39-35 73-62 100-83l-87 10z" horiz-adv-x="1000" />
<glyph glyph-name="sleigh" unicode="&#xe801;" d="m783 184h68l99 408-23 3c-2 0-161 25-263-42-84-54-75-182-67-237h-131c-4 31-20 88-69 119-35 24-71 29-94 29-24 0-39-5-41-6l-15-4v-270h494v-47l-581 2c-13 3-86 24-86 79 0 26 7 46 21 60 27 25 69 24 70 24l1 42c-2 0-60 2-99-35-24-23-35-53-35-91 0-93 116-120 121-121l771-3 0 42-141 1v47z m-494 237c18 2 51 2 85-21 49-32 52-105 52-105l1-21h221l-6 26c0 2-37 165 45 218 67 43 167 41 211 38l-80-330h-529v195z" horiz-adv-x="1000" />
<glyph glyph-name="hat" unicode="&#xe802;" d="m447-25h-8c-139 0-279 33-299 38-29 2-52 26-52 56l1 6 27 87c4 12 13 36 35 45 7 72 46 357 211 441 166 85 359-65 408-106 12 6 26 8 41 8 59 0 107-48 107-107s-48-108-107-108c-59 0-108 49-108 108-9 3-26 8-37 2-8-4-13-15-14-33-2-41 43-148 67-201 34-2 46-34 51-48l29-94c0-30-24-54-53-56-20-5-160-38-299-38z m-317 91c1-6 7-11 13-11l5 0c2-1 149-38 292-38h7c142 0 290 37 291 38l5 0c7 0 12 5 13 11l-26 84c-5 15-9 18-12 19-22-7-132-38-273-38-145 0-254 31-277 38-3-1-6-5-12-20l-26-83z m63 140c37-10 132-33 249-33 104 0 191 18 235 28-22 50-70 162-67 213 3 46 25 64 43 71 19 8 41 5 58-1 6 12 13 24 22 33-54 44-219 161-352 94-143-73-181-336-188-405z m618 302c-36 0-66-29-66-65s30-66 66-66 65 30 65 66-29 65-65 65z" horiz-adv-x="1000" />
<glyph glyph-name="candy-cane" unicode="&#xe803;" d="m580 749c-35 14-73 22-109 22-65 0-123-23-166-65 0-1-61-61-60-110 0-14 5-26 15-35 19-17 42-35 74-45 15-5 29-7 40-7 23 0 34 9 40 18 2 4 5 8 8 12 11 17 21 33 36 40 14 7 37 4 54-7 37-21 22-66 14-85l-181-412-10-23c-7-14-13-28-19-42-6-15-4-33 7-48 22-34 77-56 115-56 29 0 44 12 51 22 7 10 12 23 16 35 2 5 4 10 6 14l40 91c38 85 75 170 112 254 6 13 12 26 18 40 17 36 35 73 44 112 25 107-41 233-145 275z m104-266c-1-6-3-12-5-19l-134-38 20 44c5 13 9 25 11 37l111 32c2-19 1-38-3-56z m-6 98l-102-30c-3 14-10 27-19 38l73 74c21-23 38-52 48-82z m-80 110l-75-77c-11 5-22 8-33 10l22 101c18-3 35-8 53-14 12-5 23-12 33-20z m-218-140c0 0-7-3-33 5-20 6-37 17-59 36 0 1-1 2-1 5 0 13 12 36 27 55l79-80c-2-3-4-7-7-11-2-3-5-7-6-10z m41 53l-79 79c43 37 92 45 127 46l-23-110c-2 0-4-1-6-2-7-3-14-8-19-13z m139-411l-134-38 37 85 135 38c-13-28-25-56-38-85z m-156-88l134 38c-8-19-17-38-25-58l-10-22-135-39c2 3 3 7 5 10l31 71z m62-128c-3-9-7-19-11-25-1-2-7-4-17-4-25 0-59 14-75 30l118 35-9-19c-2-5-4-11-6-17z m159 362c-2-3-4-7-5-11l-135-38 38 86 137 39c-6-12-11-24-17-35-6-14-13-28-18-41z" horiz-adv-x="1000" />
<glyph glyph-name="snowflake" unicode="&#xe804;" d="m890 142l-223 129 86 23c5 1 9 4 12 9s3 10 2 15c-3 10-14 16-25 14l-123-33-81 46 81 47 123-33c10-3 22 3 25 14 1 5 0 10-3 15-2 4-6 7-11 9l-86 23 223 128c4 3 8 7 9 12 1 5 1 11-2 15-5 9-18 13-27 7l-223-128 23 85c2 5 1 11-2 15-2 5-7 8-12 9-10 3-21-3-24-14l-33-123-81-47v93l91 91c4 4 6 9 6 14 0 5-2 10-6 14-8 7-21 7-28 0l-63-63v257c0 11-8 20-19 20s-20-9-20-20v-257l-62 63c-8 7-21 7-28 0-4-4-6-9-6-14 0-5 2-10 6-14l90-90v-94l-81 47-33 123c-2 11-14 17-24 14-5-1-9-4-12-9-2-4-3-10-2-15l23-85-223 128c-9 6-21 2-26-7-6-9-3-21 7-27l223-128-86-23c-5-1-9-5-12-9-3-5-3-10-2-15 3-11 14-17 24-14l124 33 80-47-80-46-124 33c-10 2-21-4-24-14-3-11 4-22 14-24l86-23-223-129c-10-5-13-17-7-27 5-9 17-12 26-7l223 129-23-86c-1-5 0-10 2-15 3-4 7-8 12-9 12-3 22 4 24 14l33 123 81 47v-93l-90-91c-4-3-6-8-6-14 0-5 2-10 6-13 7-8 20-8 28 0l62 62v-257c0-11 9-20 20-20s19 9 19 20v257l63-62c7-8 20-8 28 0 7 7 7 20 0 27l-91 91v93l81-46 33-124c3-9 10-15 19-15 2 0 3 1 5 1 5 1 10 5 12 9 3 5 4 10 2 15l-22 86 222-129c9-5 22-2 27 7 6 10 2 22-7 27z" horiz-adv-x="1000" />
<glyph glyph-name="reindeer" unicode="&#xe805;" d="m914 476l-7 57-57-5c-6 0-14-1-22-1l-27 1c-51 0-102-5-137-37-21 21-46 37-73 48 25 11 48 27 67 48l1 0 1 1c13-4 25-6 38-6 84 0 152 68 152 152h-42c0-64-57-116-121-109 1 0 1 1 2 2 1 2 2 5 3 7 4 7 8 15 11 23 1 3 3 7 4 10 2 8 4 15 6 23 1 3 2 7 2 10 2 11 4 22 4 33l-42 1c0-9-1-19-3-28-1-3-1-6-2-9-2-6-3-12-5-18-1-3-3-6-4-9-2-6-5-11-7-16-2-3-4-6-6-10-2-2-3-4-5-6 0 0 0 0 0 0-1 1-3 2-4 3-3 2-6 4-9 6-2 1-3 2-5 4-2 2-5 4-7 6-1 2-3 3-4 5-2 2-4 5-6 7-1 2-2 4-4 5-1 3-3 6-4 8-1 2-2 4-3 6-2 3-3 6-4 9 0 2-1 4-2 6-1 3-2 6-2 10-1 2-1 3-1 5-1 5-1 10-1 16h-42c0-7 0-15 1-22 1-2 1-4 2-6 0-5 2-10 3-15 1-2 1-5 2-7 2-4 4-9 5-13 2-2 3-4 4-7 2-4 5-8 7-12 1-2 2-4 4-6 4-5 8-11 13-16 0 0 0 0 0 0 5-5 10-10 16-14 1-2 3-3 5-4 3-2 6-5 8-6-32-29-73-45-117-45-44 0-85 16-117 45 3 1 5 4 8 6 2 1 4 2 5 4 6 4 11 9 16 14 0 0 0 0 0 0 5 5 9 11 13 16 2 2 3 4 4 6 3 4 5 8 7 12 1 3 2 5 4 7 1 4 3 9 5 13 1 2 1 5 2 7 2 5 3 10 4 15 0 2 0 4 1 6 1 7 2 15 2 22h-42c0-6-1-11-2-16 0-2 0-4-1-5 0-4-1-7-2-10-1-2-2-4-2-6-1-3-3-6-4-9-1-2-2-4-3-6-1-2-3-5-4-8-2-1-3-3-4-5-2-2-4-5-6-7-1-2-3-3-4-5-2-2-5-4-7-6-2-2-3-3-5-4-3-2-6-4-9-6-1-1-3-2-4-3 0 0 0 0 0 0-2 2-3 4-5 7-2 3-4 6-5 9-3 5-6 10-8 16-1 3-3 6-4 9-2 6-3 12-5 19-1 2-1 5-2 8-2 9-3 19-3 28l-42-1c0-11 2-22 4-33 0-4 1-7 2-10 2-8 4-15 6-23 1-3 2-7 4-10 3-8 7-16 11-23 1-2 2-5 3-7 1-1 1-2 2-2-64-7-121 45-121 109h-42c0-84 68-152 152-152 13 0 26 2 38 6l1-1 1 0c19-21 42-37 67-48-27-11-52-27-73-48-43 40-111 38-157 37-12 0-22 0-29 0l-57 5-7-57c-5-47 26-114 75-163 21-22 51-37 88-44 2-139 133-340 251-340 118 0 249 201 251 340 37 7 67 22 88 44 49 49 80 116 75 163z m-104-134c-19-18-47-30-83-35l-21-2 3-21c0-4 0-7 0-12 0-126-121-301-209-301-88 0-209 175-209 301 0 5 0 8 1 12l2 21-21 2c-36 5-64 17-83 35-44 45-65 100-62 129l2 17 17-2c8 0 19 0 33 0 39 1 98 3 128-26 3-4 7-9 11-13l15-20 17 19c38 44 91 68 149 68 58 0 111-24 149-68l17-19 15 20c4 4 8 9 11 12 24 23 66 27 109 27l28 0c9 0 17 0 24 0l17 2 2-17c3-29-17-84-62-129z m-312-239h-65c-10-10-10-27 0-38l49-48c10-10 27-10 38 0l47 47c10 10 10 29 0 39h-69z" horiz-adv-x="1000" />
<glyph glyph-name="ornament-1" unicode="&#xe806;" d="m666 557v95l-5 6c-1 1-12 12-33 23-24 71-66 106-124 106-57 0-98-33-122-98-30-14-44-29-46-32l-5-6v-95c-107-60-175-174-175-300 0-189 154-343 344-343 190 0 344 154 344 343 0 127-69 241-178 301z m-162 188c20 0 47-5 69-44-21 6-47 9-78 9-23 0-42-2-59-5 22 35 48 40 68 40z m-131-110c12 10 48 33 122 33 76 0 116-23 129-34v-57c-4 2-9 3-13 5-4 1-9 3-13 4-7 2-14 4-21 5-3 1-7 2-11 3-8 1-15 2-23 3-3 1-7 1-10 2-9 1-19 1-28 1-2 0-4 0-5 0-11 0-23 0-34-1-1-1-2-1-3-1-10-1-20-2-30-4-3-1-6-2-9-3-8-1-16-3-23-5-4-1-8-3-12-4-5-2-11-4-16-6v59z m127-680c-166 0-302 135-302 301 0 122 73 231 184 279l1 0c74 31 160 31 235 0h0c111-48 184-157 184-279 0-166-136-301-302-301z m171 388l-112 0-35 107c-6 19-21 21-25 21s-18-2-24-21l-35-107h-113c-20 0-26-13-27-17-1-4-4-18 12-30l91-66-35-107c-4-12-1-21 3-26l8-9h11c6 0 12 2 18 6l91 66 91-66c6-4 12-6 18-6l13 1 6 8c4 5 7 14 3 26l-35 107 91 66c16 12 13 26 12 30s-7 17-27 17z m-100-79c-14-10-21-30-16-47l20-60-51 37c-14 10-36 10-49 0l-52-37 20 60c5 17-1 37-15 47l-51 37h63c17 0 34 13 40 29l19 60 20-60c5-16 22-29 40-29h63l-51-37z" horiz-adv-x="1000" />
<glyph glyph-name="snowman" unicode="&#xe807;" d="m848 375l-22 24-58-52v35h-32v-64l-20-17c-22 34-53 63-89 84 23 29 35 64 35 102 0 54-27 103-68 133h56v32h-50v115h-206v-115h-50v-32h56c-41-30-68-79-68-133 0-38 13-73 35-102-37-22-69-52-92-89l-24 22v64h-33v-35l-58 52-22-24 122-108c-16-33-24-70-24-108 0-144 117-262 261-262 144 0 262 118 262 262 0 40-10 78-27 113l116 103z m-422 359h142v-76h-142v76z m-61-247c0 73 59 132 132 132s133-59 133-132c0-36-14-70-40-95-25-24-58-38-93-38-35 0-68 14-93 38-25 25-39 59-39 95z m132-557c-126 0-229 102-229 229 0 84 48 163 122 202 0 0 1 0 1-1 7-5 14-10 21-15 1 0 2-1 4-2 7-4 15-7 22-10 2-1 3-1 4-2 8-3 17-5 25-7 1 0 2 0 3 0 9-1 18-2 27-2s18 1 27 2c1 0 2 0 3 0 9 2 17 4 25 7 1 1 3 1 4 2 8 3 15 6 23 10 1 1 2 2 3 2 8 5 15 10 21 15 0 1 1 1 1 1 75-39 122-118 122-202 0-127-103-229-229-229z m1 485c37 0 55 27 56 28l-18 12c-1-1-13-18-38-18-26 0-39 17-39 18l-9-6-9-6c1-2 20-28 57-28z" horiz-adv-x="1000" />
<glyph glyph-name="present" unicode="&#xe808;" d="m172 536v-608h686v608h-686z m644-234h-221v192h221v-192z m-381-89h-221v47h221v-47z m42 281h76v-524h-76v524z m118-234h221v-47h-221v47z m-160 234v-192h-221v192h221z m-221-323h221v-201h-221v201z m381-201v201h221v-201h-221z m133 607c2 1 51 16 51 86 0 62-46 109-107 109-57 0-137-57-137-183v-21h131c18 0 45 4 62 9z m-56 153c31 0 65-21 65-67 0-37-19-45-21-46-13-3-36-7-50-7h-88c8 82 58 120 94 120z m-370-153c17-5 44-9 61-9h131v21c0 126-79 183-136 183-61 0-108-47-108-109 0-70 50-85 52-86z m56 153c35 0 86-38 93-120h-88c-13 0-36 4-49 7-1 0-22 8-22 46 0 46 34 67 66 67z" horiz-adv-x="1000" />
<glyph glyph-name="snow-globe" unicode="&#xe809;" d="m271 451c18 57 52 106 99 144l-26 33c-54-43-93-100-113-165l40-12z m619-84c0 211-171 383-382 383-211 0-383-172-383-383 0-52 10-102 30-149 13-29 29-57 48-82h-52v-169h714v169h-53c50 66 78 147 78 231z m-382 341c187 0 340-153 340-341 0-35-5-69-15-101-18-3-133-22-205-29v96l5-3 24 35-29 19v59h-42v-30l-60 42-12-8c-48-32-107-69-118-72l3-21v-21c4 0 10 0 37 15v-70c-30 12-60 25-90 37-81 36-143 17-175 0-2 17-4 34-4 52 0 188 153 341 341 341z m17-304l61-42v-124c-33 3-70 12-108 25v111c14 8 29 18 47 30z m-344-132c17 11 70 39 148 5 97-42 197-83 280-83 7 0 14 1 20 1 58 5 142 18 186 25-15-30-34-59-58-84h-499c-27 29-49 62-64 99-5 12-10 24-13 37z m642-262h-630v84h47 9 517 9 48v-84z" horiz-adv-x="1000" />
<glyph glyph-name="wreath" unicode="&#xe80a;" d="m824 483c1 20-3 47-7 73-3 20-6 41-6 53 0 10 3 24 7 39 10 40 24 94-20 122-46 29-153-40-212-83-9 9-22 15-36 15h-98c-14 0-27-6-36-15-39 28-132 90-184 90-11 0-21-2-29-7-43-28-29-82-19-122 3-15 7-29 7-39 0-12-3-33-6-53-4-25-8-50-8-69-32-57-51-128-51-188 0-206 167-374 374-374 206 0 373 168 373 374 0 65-17 128-49 184z m-48 251c16-10 11-38 1-76-4-17-8-34-8-49 0-16 3-37 7-60 4-25 8-53 6-68v0c0-1 0-1 0-1-13-2-48 4-89 26-32 17-71 43-89 54v12h58c17 0 31 14 31 31 0 17-14 31-31 31h-58v14c0 0 0 0 0 0 76 56 156 96 172 86z m-276-266c93 0 168-76 168-169s-75-169-168-169c-94 0-169 76-169 169s75 169 169 169z m-48 192h98c4 0 8-2 10-5 1-2 1-4 2-6l0-7 0 0 0-37c0-1 0-1 0-2 0-1 0-1 0-2l0-51v-1c0-6-5-12-12-12h-98c-6 0-12 6-12 12v99c0 6 5 12 12 12z m-226 74c0 0 2 1 6 1 35 0 117-51 166-87l0-14h-58c-17 0-31-14-31-31 0-17 14-31 31-31h58l-1-12c-17-11-57-37-88-54-30-16-64-27-84-27-3 0-4 1-6 1 0 1 0 3 0 5 0 15 3 40 7 64 4 23 7 44 7 60 0 15-4 32-9 49-9 38-14 66 2 76z m274-767c-183 0-332 149-332 332 0 44 13 97 34 142 6-2 14-4 23-4 27 0 67 13 104 32 27 14 59 35 80 48 6-8 14-14 23-18-83-28-143-107-143-200 0-116 94-211 211-211 116 0 210 95 210 211 0 92-59 171-142 199 10 4 19 11 26 19 20-14 52-34 79-48 6-3 12-6 19-9 2-1 3-2 5-2 7-4 15-7 23-9 2-1 3-1 5-2 7-2 15-4 22-6 2 0 3 0 4-1 8-1 16-2 24-2 1 0 1-1 2-1 1 0 2 1 4 1 3 0 5 0 8 1 2 0 5 0 7 1 1 0 2 0 4 1 20-44 31-93 31-142 0-183-149-332-331-332z" horiz-adv-x="1000" />
<glyph glyph-name="snowflake-1" unicode="&#xe80b;" d="m845 310l-168-45-38 22v99l38 22 167-45c2-1 3-1 5-1 8 0 15 6 17 13 1 5 1 10-2 14-2 4-6 7-10 8l-134 36 128 74c4 2 7 6 9 11 1 4 0 9-2 13-5 8-16 11-24 6l-129-74 36 134c3 10-3 19-12 22-9 2-20-3-22-13l-45-168-37-21-87 50v43l123 123c7 7 7 18 0 25-6 6-18 6-25 0l-98-98v148c0 10-7 18-17 18-10 0-18-8-18-18v-148l-98 98c-6 6-18 6-25 0-7-7-7-18 0-25l123-123v-43l-86-50-37 21-45 168c-3 10-12 15-22 13-9-3-15-12-12-22l35-134-128 75c-8 4-19 1-24-7-2-4-3-9-2-13 1-5 4-9 8-11l129-74-134-36c-9-3-15-12-13-22 3-7 10-13 17-13 2 0 4 1 5 1l168 45 37-22v-99l-37-22-168 45c-9 3-19-3-21-12-3-10 3-19 12-22l134-36-129-74c-4-2-7-6-8-11-1-4 0-9 2-13 5-8 16-11 24-6l129 74-36-134c-2-5-1-9 1-13 3-5 7-7 11-9 1 0 3 0 5 0 8 0 15 5 17 13l45 168 37 21 86-50v-43l-123-123c-7-6-7-18 0-25 7-6 19-6 25 0l98 99v-149c0-10 8-18 18-18 10 0 17 8 17 18v149l98-99c7-6 18-6 25 1 7 6 7 18 0 24l-123 123v43l87 50 37-21 45-168c2-8 9-13 17-13 1 0 3 0 5 0 9 3 15 13 12 22l-36 134 129-74c8-5 19-2 24 6 5 8 2 19-7 24l-128 74 134 36c4 1 8 4 10 8 3 4 3 9 2 14-2 9-12 15-21 12z m-241 76v-99l-86-50-86 50v99l86 50 86-50z" horiz-adv-x="1000" />
<glyph glyph-name="stocking" unicode="&#xe80c;" d="m715 516c-69 18-134 52-197 85-13 6-27 13-40 20 12 30 24 79 7 106-7 10-21 23-49 17-28-5-44-17-49-35-9-36 33-78 57-98-26-40-46-83-65-125l-11-25c-5-11-10-21-15-32-21-47-44-95-58-145-12-43 17-87 40-122 7-11 14-21 19-30 32-60 62-108 95-151 28-37 66-57 108-57 26 0 52 8 76 24 58 37 77 99 55 174-11 38-25 75-38 106l-1 3c-11 27-17 41-11 67 12 45 37 89 61 131l3 5c10 17 18 37 25 61l4 16-16 5z m-296 184c1 5 10 9 23 12 2 0 5 0 6 0 7 0 8-2 9-3 6-10 4-35-4-61-22 21-36 43-34 52z m-91-424c7 26 17 52 28 78 30-22 54-43 55-77 0-28-26-63-47-91-1-1-2-2-2-3-20 30-42 65-34 93z m287-301c-19-12-38-18-58-18-31 0-60 15-81 44-1 0-1 1-2 2l1 1c21 26 48 59 76 70 26 10 64 8 97 5 5 0 10 0 15-1 4-44-11-79-48-103z m3 243l2-3c12-30 26-66 37-102 0-1 0-1 0-1-3 0-5 0-7 0-36 3-78 6-111-7-34-13-62-46-85-74-24 34-47 72-71 117-1 1-1 3-2 4 3 5 6 9 10 14 24 32 53 72 53 111-1 53-39 83-74 108 5 10 9 20 14 30 5 11 10 21 15 32l11 25c1 3 2 6 4 9 34-24 69-47 108-63 37-15 76-25 114-35-12-25-23-50-30-77-9-36 0-59 12-88z m56 233l-4-6c-6-10-12-21-18-32-39 11-80 21-118 36-36 15-70 38-103 60l-3 2c12 27 25 53 41 77 11-5 22-11 33-17 60-31 122-63 188-83-4-14-10-26-16-37z" horiz-adv-x="1000" />
<glyph glyph-name="ornament" unicode="&#xe80d;" d="m697 558v95l-6 6c-1 1-11 11-32 23-24 70-66 106-125 106-56 0-97-33-122-98-30-14-43-30-46-33l-4-5v-95c-108-61-175-174-175-300 0-189 154-344 343-344 190 0 344 155 344 344 0 127-68 241-177 301z m-163 188c20 0 47-6 69-44-21 5-47 9-77 9-23 0-42-2-60-5 22 35 48 40 68 40z m-130-110c12 10 47 33 122 33 75 0 115-24 129-34v-57c-5 2-9 3-13 4-5 2-9 3-14 5-6 2-13 3-19 5-4 1-9 2-13 3-7 1-14 2-21 3-4 0-8 1-12 1-8 1-16 1-24 2-3 0-6 0-9 0-11 0-22-1-33-2-3 0-6-1-9-1-8-1-16-2-24-3-4-1-8-2-12-3-7-2-14-3-20-5-5-2-9-3-13-5-5-2-10-3-15-5v59z m126-681c-166 0-301 136-301 302 0 122 72 231 184 278 74 32 160 32 235 0 112-47 184-156 184-278 0-166-135-302-302-302z m-112 530c-78-22-133-94-133-175 0-12 10-23 23-23 12 0 22 11 22 23 0 61 41 115 100 131 12 3 19 16 16 28-3 12-16 19-28 16z" horiz-adv-x="1000" />
<glyph glyph-name="tree" unicode="&#xe80e;" d="m824 263c-39-6-138-14-185 11 27 18 85 56 124 81l41 27h-49c-39 0-137 5-184 30 27 16 80 47 115 67l39 23-45 5c-49 5-133 25-150 57l-13 23-13-23c-18-32-102-52-151-57l-44-5 39-23c35-20 87-51 114-67-46-25-145-30-183-30h-50l42-27c39-25 96-63 124-81-47-25-147-17-185-11l-41 6 28-31c6-7 153-166 319-168 0 0 1 0 2 0 165 2 312 161 319 168l27 31-40-6z m-307-163c-112 0-218 83-268 129 54-4 143-4 181 34l5 5 0 7c-1 9-1 9-109 79 54 3 139 14 173 48l5 5-1 7c-1 8-1 9-105 70 38 8 91 22 119 50 28-28 81-42 119-50-105-61-105-62-106-70l0-7 5-5c34-34 118-45 173-48-108-70-108-70-109-79l-1-7 5-5c39-38 128-38 182-34-50-46-157-129-268-129z m-29 566c2-2 3-6 2-9l-13-40c0-3 1-4 3-2l34 25c3 2 7 2 10 0l34-25c2-2 3-1 3 2l-14 40c0 3 1 7 3 9l34 25c3 2 2 3-1 3h-42c-3 0-6 3-7 6l-13 40c-1 3-3 3-4 0l-13-40c-1-3-4-6-7-6h-42c-3 0-4-1-1-3l34-25z" horiz-adv-x="1000" />
<glyph glyph-name="santa" unicode="&#xe80f;" d="m916 595c0 56-46 102-103 102-8 0-16-1-23-3-28 27-108 89-264 98-201 11-287-119-309-162-28-5-38-32-43-45l-26-83-1-6c0-20 10-36 26-46l-1-4c-19-2-41-10-53-33-10-19-10-43-2-63 7-16 18-28 31-36 2-19 7-60 7-85 0-66 14-181 106-219 36-15 60-38 83-60 31-28 59-56 107-56h61c48 0 81 28 116 57 25 22 52 44 87 59 111 46 112 213 112 220 0 36-4 69-8 87 12 8 21 19 27 33 8 20 8 44-2 63-11 23-34 31-53 33l-1 4c10 5 17 13 21 22 3 7 4 14 2 21 57 0 103 46 103 102z m-392 157c128-8 198-52 227-76-16-13-29-31-35-51-31-9-118-30-232-30-100 0-185 18-226 28 27 43 103 138 266 129z m-312-180c5 15 9 18 12 19 21-6 125-36 260-36 105 0 187 17 228 28 5-36 27-65 58-80l5-15c-1-1-3-4-8-6-1 0-149-35-285-35-135 0-276 35-277 35l-5 1c-6 0-12 4-13 10l25 79z m596-177c5-9 5-20 1-30-2-5-8-14-19-18l-17-6 4-18c0 0 10-43 10-93 0-2-1-147-87-183-41-17-71-42-98-65-32-27-57-48-90-48h-61c-32 0-52 19-79 45-25 24-53 50-96 68-70 29-81 127-81 182 0 36-8 99-9 102l-1 12-12 4c-11 4-17 13-19 18-4 10-4 21 1 30 7 14 30 11 30 11l19-3 8 37c41-10 156-33 270-33 108 0 220 20 270 31l7-35 19 3c0-1 23 3 30-11z m5 138c-34 0-62 28-62 62 0 34 28 62 62 62 35 0 63-28 63-62 0-34-28-62-63-62z m-90-143c-10-4-35-23-35-107 0-18-4-31-12-37-11-8-27-8-34-6-18 9-102 51-152 51-50 0-122-39-139-49-11-2-34-3-47 7-8 7-12 18-12 34 0 84-25 103-35 107l-15-37c-2 1-3 2-3 2 0 0 13-13 13-72 0-36 14-55 27-65 32-26 78-15 83-14l6 2c21 12 86 45 122 45 37 0 110-35 136-48l4-2c2 0 11-2 22-2 14 0 32 3 48 15 19 15 28 38 28 69 0 59 13 72 13 72 0 0-1-1-3-2l-15 37z m-239-231c-56 0-87 31-88 32l-29-27c2-2 43-45 117-45 74 0 116 43 118 45l-29 27c-1 0-32-32-89-32z" horiz-adv-x="1000" />
<glyph glyph-name="gingerbread" unicode="&#xe810;" d="m921 520c-11 32-42 52-81 52-10 0-20-1-32-4l-153-62c17 28 25 59 25 92 0 100-81 181-180 181-100 0-181-81-181-181 0-33 9-64 26-92l-157 62c-49 13-96-8-111-48-15-41 8-85 53-107l213-115-60-214c-12 3-23 4-34 4-51 0-93-24-107-62-19-54 22-119 93-145 59-22 120-7 157 39l107 146 108-148c26-30 62-47 102-47 18 0 36 3 55 10 71 26 112 91 92 145-13 38-55 62-106 62-12 0-23-1-34-4l-60 214 211 115c47 22 69 66 54 107z m-804-14c5 15 21 24 42 24 6 0 12-1 16-1l24-10-41-73-9 5c-26 12-39 35-32 55z m495-210l67-237c5-12 16-19 28-19l8 1c43 12 92-2 102-29 11-32-19-74-67-91-44-16-85-6-109 23l-119 162c-6 7-14 11-23 11-9 0-17-4-23-12l-117-160c-25-30-67-40-110-24-48 17-79 59-67 91 7 20 34 34 67 34 11 0 23-2 34-5l9-1c12 0 23 8 28 20l66 235c4 14-2 29-14 35l-177 96 43 77 140-55 8-1c11 0 21 5 26 15 6 11 4 26-6 35-29 27-45 63-45 101 0 77 63 139 139 139 76 0 138-62 138-139 0-38-15-74-44-101-10-9-12-23-5-35 5-9 14-15 25-15l6 0 149 60 43-77-184-99c-14-7-20-22-16-35z m237 154l-40 73 12 5c28 7 54-2 61-22 7-20-6-43-33-56z m-349 73c-33 0-50 23-51 24l-23-16c1-1 26-36 74-36 48 0 72 35 72 36l-23 16c0 0-16-24-49-24z" horiz-adv-x="1000" />
<glyph glyph-name="mitten" unicode="&#xe811;" d="m712 644c-36 26-81 41-123 41-7 0-13 0-16-1l-6 0c-109 0-196-69-213-168-6-37-5-67-3-101l1-18c0-1 1-5 1-10 2-14 4-25 4-33-23 19-56 45-89 42-33-3-61-24-73-54-13-32-7-69 16-95 17-21 37-38 57-55 17-15 34-29 49-45 3-4 7-9 12-13 16-18 39-42 43-62 2-8 2-18 2-28 0-25 0-55 24-77 16-14 34-16 49-16l17 0c48 0 96 0 144 0l45 0 32 0c9 0 17 0 26 0 56 2 55 62 55 91 0 5 0 9 0 13 2 50 14 102 25 151 14 61 28 125 26 189-3 83-17 186-105 249z m12-603c0-40-4-47-14-48-8 0-17 0-25 0l-32 0-45 0c-48 0-96 0-144 0l-17 0c-11 0-16 1-21 5-10 9-10 23-10 45 0 8 0 15-1 22 50-1 98-2 146-2 55 0 109 1 164 3 0-3-1-6-1-9 0-4 0-10 0-16z m26 174c-8-35-16-71-21-107-107-3-214-4-326-1-11 21-29 40-44 55-4 5-8 9-11 13-17 18-35 34-53 49-19 17-37 32-52 50-13 15-16 34-9 52 6 16 20 26 40 28 16 0 41-20 57-33 17-14 28-23 41-23l11 1 7 6c13 14 12 40 5 88 0 3-1 5-1 6l-1 18c-2 33-3 59 3 92 13 79 83 133 171 133l8 0c37 4 79-8 112-32 73-52 85-139 88-217 2-58-11-116-25-178z" horiz-adv-x="1000" />
<glyph glyph-name="bell" unicode="&#xe812;" d="m873 156c0 23-26 53-104 132-24 24-53 53-57 61-5 12-4 65-3 90 0 18 0 32 0 40-1 7-4 15-9 23 7-1 14-2 21-2 9 0 17 2 24 5 22 12 17 44 10 88-2 15-4 30-4 39 0 6 2 17 5 27 7 29 18 73-17 95-7 5-15 7-24 7-39 0-103-43-134-65-8 6-17 9-27 9h-72c-10 0-20-3-27-9-31 22-96 65-135 65-9 0-17-2-24-7-35-22-24-66-17-95 3-10 6-21 6-27 0-9-3-24-5-39-7-44-12-75 11-88 6-3 14-5 24-5h0c6 0 13 1 20 2-4-8-8-16-8-23-1-8-1-23 0-41 0-25 2-77-3-89-5-8-34-37-57-61-79-79-105-109-105-132 0-33 29-107 266-122-3-9-5-19-5-29 0-52 43-94 95-94 52 0 94 42 94 94 0 10-1 20-4 29 237 15 265 89 265 122z m-156 563c8-6 4-25-2-50-3-13-6-26-6-37 0-12 2-28 5-45 2-13 5-34 5-45-14 1-37 8-58 19-21 11-48 29-62 38v14h37c8 0 14 6 14 14s-6 15-14 15h-37v16c38 27 93 61 118 61z m-235-56h72l3-2 0-73c0-2-1-3-3-3h-72c-2 0-3 1-3 3v72c0 2 1 3 3 3z m-162 6c-6 25-10 44 0 50 23 0 79-34 117-62l0-15h-38c-8 0-14-7-14-15s6-14 14-14h37l0-14c-13-9-40-27-62-38-20-11-43-18-58-19 0 11 4 32 6 45 2 17 5 33 5 45 0 11-3 24-7 37z m42-337c8 19 8 59 7 108-1 15-1 28 0 35 1 8 22 36 44 59l-1 0c14 8 27 16 37 23 8-9 20-14 33-14h72c13 0 25 5 33 14 10-7 23-15 36-23l-1 0c22-23 43-51 45-59 0-6 0-20 0-35-2-49-2-89 6-108 6-12 23-30 66-73 2-2 4-4 5-6-25-15-89-45-214-45-126 0-202 33-234 51 0 0 0 0 0 0 44 43 61 61 66 73z m208-327c0-29-23-52-52-52-29 0-53 23-53 52 0 10 3 19 8 27 15 0 29-1 45-1 15 0 30 1 44 1 5-8 8-17 8-27z m-52 68c-308 0-314 81-314 81 3 12 34 45 62 74 37-23 123-62 264-62 146 0 218 38 245 57 26-28 54-57 57-67-1 0-4-83-314-83z" horiz-adv-x="1000" />
<glyph glyph-name="shooting-star" unicode="&#xe813;" d="m889 522c16 12 13 27 12 31s-7 17-28 17h-126c-1 0-2 2-2 2l-39 120c-7 20-21 21-26 21s-19-1-25-21l-39-120c0 0-2-2-2-2h-126c-21 0-27-13-28-17-2-4-5-18 12-31l30-22c-46-6-119-24-211-72-167-88-215-289-217-298l-11-51 136 90-46-282 150 223 34-139 20 87c0 1 34 154 94 229 32 42 70 62 96 72l-11-33c-4-14-1-22 3-27l8-10h11c6 0 12 2 19 7l105 74 102-74c6-5 12-7 19-7l13 1 6 9c3 5 7 13 3 26l-39 120c0 1 0 3 0 3l103 74z m-471-209c-37-46-64-115-81-168l-16 66-96-141 31 187-123-81c25 63 79 163 178 214 139 73 229 72 244 72l19-14c0 0 1-2 1-3l-13-38c-27-6-91-26-144-94z m344 169c-15-11-22-32-16-50l24-74-63 46c-15 10-38 10-53 0l-63-46 24 74c6 18-1 39-16 50l-64 46h79c18 0 36 14 42 31l24 75 25-75c5-17 24-31 42-31h79l-64-46z" horiz-adv-x="1000" />
<glyph glyph-name="star" unicode="&#xe814;" d="m865 449c-2 6-9 20-33 20h-207c-7 0-15 6-17 12l-64 197c-8 23-23 26-29 26s-21-3-29-26l-64-197c-2-6-10-12-16-12h-208c-24 0-31-14-33-20-2-6-4-21 15-35l168-122c5-4 9-14 7-20l-65-197c-4-13-3-24 3-32 9-12 27-14 44-2l168 122c4 4 16 4 20 0l168-122c8-5 16-8 23-8 9 0 16 4 21 10 6 8 7 19 3 32l-65 197c-2 6 2 16 7 20l168 122c19 14 17 29 15 35z m-208-123c-20-14-29-43-21-67l52-162-138 100c-10 7-22 11-35 11s-25-4-35-11l-138-100 53 162c7 23-2 53-22 67l-138 101h171c24 0 49 17 56 41l53 162 53-162c8-24 32-41 57-41l170-1-138-100z" horiz-adv-x="1000" />
<glyph glyph-name="candle" unicode="&#xe815;" d="m632 31v385h-247v-385h-123c4 10 6 21 6 32 0 46-37 84-83 84s-84-38-84-84 37-84 84-84c9 0 18 2 27 5v-67h590l123 114h-293z m-205 343h163v-334h-163v334z m-284-311c0 23 19 42 42 42s41-19 41-42-18-42-41-42-42 19-42 42z m642-104h-531v30h564l-33-30z m-275 480c57 0 103 46 103 103 0 49-71 173-85 198l-18 31-18-31c-15-25-86-149-86-198 0-57 47-103 104-103z m0 247c30-54 61-121 61-144 0-34-27-61-61-61-34 0-62 27-62 61 0 23 32 90 62 144z" horiz-adv-x="1000" />
<glyph glyph-name="snowflake-2" unicode="&#xe816;" d="m818 365h-113l70 70c6 7 6 18 0 24-7 7-18 7-25 0l-94-94h-121l200 201c7 6 7 17 0 24-7 6-18 7-24 0l-201-200v121l94 94c7 7 7 18 0 25-6 6-18 6-24 0l-70-70v113c0 10-8 17-17 17s-17-7-17-17v-113l-70 70c-7 6-18 7-25 0-6-7-6-18 0-25l95-94v-121l-201 200c-6 7-18 7-24 0-7-7-7-18 0-24l200-201h-121l-95 94c-6 7-18 7-24 0-3-3-5-7-5-12 0-5 2-9 5-12l70-70h-113c-10 0-18-8-18-17s8-17 18-17h112l-69-70c-7-7-7-18 0-25 6-6 18-6 24 0l94 95h122l-200-201c-7-7-7-18 0-24 6-7 17-7 24 0l200 200v-121l-94-95c-6-6-6-17 0-24 7-7 18-7 25 0l69 70v-113c0-10 8-18 18-18s17 8 17 18v113l70-70c6-7 18-7 24 0 7 7 7 18 0 24l-94 94v122l201-200c6-7 17-7 24 0 3 3 5 7 5 12s-2 9-5 12l-200 201h121l94-95c7-6 18-6 25 0 6 7 6 18 0 25l-70 70h113c10 0 17 7 17 17s-7 17-17 17z" horiz-adv-x="1000" />
<glyph glyph-name="candy" unicode="&#xe817;" d="m897 179c-1 0-23 38-10 93 5 18 12 33 20 47 17 35 35 70-11 113-17 16-9 68-2 91l9 31-229-92c-39 45-100 71-166 71-65 0-126-26-165-71l-228 92 9-31c7-23 16-75-2-91-46-43-28-78-11-113 8-14 15-29 20-47 13-54-8-92-9-94l-24-38 248 97c39-42 99-68 162-68 64 0 123 26 163 69l249-98-23 39z m-39 324c-3-18-5-41 0-62l-145-43c-4 13-10 27-18 39l163 66z m-535-66c-8-12-13-26-18-39l-145 43c5 21 3 44 0 62l163-66z m-180-28c1 2 2 3 4 5l153-47c-1-5-2-10-2-16 0-9 1-18 3-26l-150-18c-4 10-8 18-12 26-17 33-25 49 4 76z m18-212c5 21 7 48 0 81l148 17c4-11 9-22 16-33l-164-65z m347 1c-55 0-106 22-140 58l-7 9c-21 25-32 55-32 86 0 30 10 59 30 84l1 1 0 0c33 42 89 67 148 67 60 0 116-26 149-68 20-25 30-54 30-84 0-31-11-61-32-86l1-1c-34-41-89-66-148-66z m185 64c7 11 12 22 16 33l148-17c-7-33-5-61 0-81l-164 65z m174 45l-150 18c2 8 3 17 3 26 0 6-1 11-1 17l153 46c1-2 2-3 3-5 30-27 21-43 5-76-4-8-9-16-13-26z" horiz-adv-x="1000" />
</font>
</defs>
</svg>
